{"title":"Jatt In Mood 2013 Punjabi HDRip XviD AC3....Hon3y.avi","uid":9597342,"size":1554051480,"categoryP":"video","categoryS":"movies","magnet":"?xt=urn:btih:4fa632cc8a8f7ffd07837cf64e02496721e303cf&amp;dn=Jatt+In+Mood+2013+Punjabi+HDRip+XviD+AC3....Hon3y.avi&amp;tr=udp%3A%2F%2Ftracker.openbittorrent.com%3A80&amp;tr=udp%3A%2F%2Fopen.demonii.com%3A1337&amp;tr=udp%3A%2F%2Ftracker.coppersurfer.tk%3A6969&amp;tr=udp%3A%2F%2Fexodus.desync.com%3A6969","seeders":1,"leechers":1,"uploader":"honey8ee","files":1,"time":1392048588,"description":"www.imdb.com/title/tt2867058/\n\nSource                                   : Web-DL\nFormat                                   : AVI\nFile size                                : 1.45 GiB\nDuration                                 : 2h 18mn\nOverall bit rate                         : 1 500 Kbps\n\nVideo\nID                                       : 0\nFormat                                   : MPEG-4 Visual\nFormat profile                           : Advanced Simple@L5\nCodec ID                                 : XVID\nDuration                                 : 2h 18mn\nBit rate                                 : 1 332 Kbps\nWidth                                    : 720 pixels\nHeight                                   : 304 pixels\nDisplay aspect ratio                     : 2.35:1\nFrame rate                               : 25.000 fps\nStream size                              : 1.29 GiB (89%)\nWriting library                          : XviD 1.2.1 (UTC 2008-12-04)\n\nAudio\nID                                       : 1\nFormat                                   : AC-3\nFormat/Info                              : Audio Coding 3\nCodec ID                                 : 2000\nDuration                                 : 2h 18mn\nBit rate mode                            : Constant\nBit rate                                 : 160 Kbps\nChannel count                            : 2 channels\nSampling rate                            : 44.1 KHz\nBit depth                                : 16 bits\nStream size                              : 158 MiB (11%)\nTitle                                    : Br@ve [Rana.Aqib]\n\n\n &lt;a href=&quot;\nhttp://i.imgur.com/g44VTyH.png&quot; rel=&quot;nofollow&quot; target=&quot;_NEW&quot;&gt;\nhttp://i.imgur.com/g44VTyH.png&lt;/a&gt; &lt;a href=&quot;\nhttp://i.imgur.com/1FCmtCm.png&quot; rel=&quot;nofollow&quot; target=&quot;_NEW&quot;&gt;\nhttp://i.imgur.com/1FCmtCm.png&lt;/a&gt; &lt;a href=&quot;\nhttp://i.imgur.com/9d6WH3k.png&quot; rel=&quot;nofollow&quot; target=&quot;_NEW&quot;&gt;\nhttp://i.imgur.com/9d6WH3k.png&lt;/a&gt; &lt;a href=&quot;\nhttp://i.imgur.com/zWlFWOX.png&quot; rel=&quot;nofollow&quot; target=&quot;_NEW&quot;&gt;\nhttp://i.imgur.com/zWlFWOX.png&lt;/a&gt; &lt;a href=&quot;\nhttp://i.imgur.com/rDq5efk.png&quot; rel=&quot;nofollow&quot; target=&quot;_NEW&quot;&gt;\nhttp://i.imgur.com/rDq5efk.png&lt;/a&gt; &lt;a href=&quot;\nhttp://i.imgur.com/5yVsYKw.png&quot; rel=&quot;nofollow&quot; target=&quot;_NEW&quot;&gt;\nhttp://i.imgur.com/5yVsYKw.png&lt;/a&gt; &lt;a href=&quot;\nhttp://i.imgur.com/onYuBtI.png&quot; rel=&quot;nofollow&quot; target=&quot;_NEW&quot;&gt;\nhttp://i.imgur.com/onYuBtI.png&lt;/a&gt; &lt;a href=&quot;\nhttp://i.imgur.com/idtm7UQ.png&quot; rel=&quot;nofollow&quot; target=&quot;_NEW&quot;&gt;\nhttp://i.imgur.com/idtm7UQ.png&lt;/a&gt; &lt;a href=&quot;\nhttp://i.imgur.com/KcB2pcE.png&quot; rel=&quot;nofollow&quot; target=&quot;_NEW&quot;&gt;\nhttp://i.imgur.com/KcB2pcE.png&lt;/a&gt; &lt;a href=&quot;\nhttp://i.imgur.com/iUWBgfk.png&quot; rel=&quot;nofollow&quot; target=&quot;_NEW&quot;&gt;\nhttp://i.imgur.com/iUWBgfk.png&lt;/a&gt;\n\n\n                              &lt;a href=&quot; http://www.hon3yhd.com/&quot; rel=&quot;nofollow&quot; target=&quot;_NEW&quot;&gt; http://www.hon3yhd.com/&lt;/a&gt;\n","torrent":{"xt":"urn:btih:4fa632cc8a8f7ffd07837cf64e02496721e303cf","amp;dn":"Jatt+In+Mood+2013+Punjabi+HDRip+XviD+AC3....Hon3y.avi","amp;tr":["udp%3A%2F%2Ftracker.openbittorrent.com%3A80","udp%3A%2F%2Fopen.demonii.com%3A1337","udp%3A%2F%2Ftracker.coppersurfer.tk%3A6969","udp%3A%2F%2Fexodus.desync.com%3A6969"],"infoHash":"4fa632cc8a8f7ffd07837cf64e02496721e303cf","infoHashBuffer":{"type":"Buffer","data":[79,166,50,204,138,143,127,253,7,131,124,246,78,2,73,103,33,227,3,207]},"announce":[],"urlList":[]}}